<?xml version="1.0" standalone="no"?>
<!DOCTYPE svg PUBLIC "-//W3C//DTD SVG 20010904//EN"
 "http://www.w3.org/TR/2001/REC-SVG-20010904/DTD/svg10.dtd">
<svg version="1.0" xmlns="http://www.w3.org/2000/svg"
 width="700.000000pt" height="700.000000pt" viewBox="0 0 700.000000 700.000000"
 preserveAspectRatio="xMidYMid meet">
<metadata>
Created by potrace 1.14, written by Peter Selinger 2001-2017
</metadata>
<g transform="translate(0.000000,700.000000) scale(0.100000,-0.100000)"
fill="#000000" stroke="none">
<path d="M1710 3500 l0 -2420 605 0 605 0 0 1047 0 1048 803 -800 c441 -440
915 -912 1054 -1049 l251 -249 427 423 426 424 -778 778 -778 778 105 107 c58
60 408 412 778 784 l673 675 -427 438 -428 438 -585 -593 c-321 -327 -795
-805 -1053 -1064 l-468 -470 0 1063 0 1062 -605 0 -605 0 0 -2420z"/>
</g>
</svg>
